<svg xmlns="http://www.w3.org/2000/svg" viewBox="0 0 64 64" fill="none">
  <!-- Left page (navy) -->
  <path d="M32 17 C 25 12.5, 14.5 12, 7.5 15 L 7.5 47 C 14.5 44, 25 44.5, 32 49 Z"
        fill="#2d2a5e" stroke="#2d2a5e" stroke-width="2.4" stroke-linejoin="round"/>
  <!-- Right page (white with amber "page" stripes) -->
  <path d="M32 17 C 39 12.5, 49.5 12, 56.5 15 L 56.5 47 C 49.5 44, 39 44.5, 32 49 Z"
        fill="#ffffff" stroke="#2d2a5e" stroke-width="2.4" stroke-linejoin="round"/>
  <g stroke="#f5a623" stroke-width="2.4" stroke-linecap="round">
    <line x1="37.5" y1="22" x2="51" y2="20.5"/>
    <line x1="37.5" y1="28" x2="51" y2="26.5"/>
    <line x1="37.5" y1="34" x2="51" y2="32.5"/>
    <line x1="37.5" y1="40" x2="51" y2="38.5"/>
  </g>
  <!-- Spine -->
  <line x1="32" y1="17" x2="32" y2="49" stroke="#2d2a5e" stroke-width="2.4" stroke-linecap="round"/>
  <!-- Circuit accent -->
  <g fill="#f5a623">
    <rect x="52.5" y="11" width="3" height="3" rx="0.6"/>
    <rect x="57" y="15" width="3" height="3" rx="0.6"/>
  </g>
  <path d="M54 14 L 58.5 18" stroke="#f5a623" stroke-width="1.4" stroke-linecap="round"/>
</svg>
